<svg width="173" height="173" viewBox="0 0 173 173" fill="none" xmlns="http://www.w3.org/2000/svg">
<path d="M86.5 25.2292C75.3872 25.2292 65.1378 27.9698 55.752 33.4512C46.3661 38.9325 38.9325 46.3661 33.4512 55.752C27.9698 65.1378 25.2292 75.3872 25.2292 86.5C25.2292 97.6128 27.9698 107.862 33.4512 117.248C38.9325 126.634 46.3661 134.067 55.752 139.549C65.1378 145.03 75.3872 147.771 86.5 147.771C97.6128 147.771 107.862 145.03 117.248 139.549C126.634 134.067 134.067 126.634 139.549 117.248C145.03 107.862 147.771 97.6128 147.771 86.5C147.771 75.3872 145.03 65.1378 139.549 55.752C134.067 46.3661 126.634 38.9325 117.248 33.4512C107.862 27.9698 97.6128 25.2292 86.5 25.2292ZM173 86.5C173 102.193 169.133 116.666 161.399 129.919C153.665 143.172 143.172 153.665 129.919 161.399C116.666 169.133 102.193 173 86.5 173C70.8069 173 56.3339 169.133 43.0811 161.399C29.8282 153.665 19.3349 143.172 11.6009 129.919C3.86697 116.666 0 102.193 0 86.5C0 70.8069 3.86697 56.3339 11.6009 43.0811C19.3349 29.8282 29.8282 19.3349 43.0811 11.6009C56.3339 3.86697 70.8069 0 86.5 0C102.193 0 116.666 3.86697 129.919 11.6009C143.172 19.3349 153.665 29.8282 161.399 43.0811C169.133 56.3339 173 70.8069 173 86.5Z" fill="#747474"/>
<path d="M86 40.9583C77.6493 40.9583 69.9475 43.0178 62.8945 47.1367C55.8416 51.2556 50.2556 56.8416 46.1367 63.8945C42.0178 70.9475 39.9583 78.6493 39.9583 87C39.9583 95.3507 42.0178 103.053 46.1367 110.105C50.2556 117.158 55.8416 122.744 62.8945 126.863C69.9475 130.982 77.6493 133.042 86 133.042C94.3507 133.042 102.053 130.982 109.105 126.863C116.158 122.744 121.744 117.158 125.863 110.105C129.982 103.053 132.042 95.3507 132.042 87C132.042 78.6493 129.982 70.9475 125.863 63.8945C121.744 56.8416 116.158 51.2556 109.105 47.1367C102.053 43.0178 94.3507 40.9583 86 40.9583ZM151 87C151 98.7925 148.094 109.668 142.283 119.627C136.471 129.586 128.586 137.471 118.627 143.283C108.668 149.094 97.7925 152 86 152C74.2075 152 63.3318 149.094 53.373 143.283C43.4143 137.471 35.5291 129.586 29.7174 119.627C23.9058 109.668 21 98.7925 21 87C21 75.2075 23.9058 64.3318 29.7174 54.373C35.5291 44.4143 43.4143 36.5291 53.373 30.7174C63.3318 24.9058 74.2075 22 86 22C97.7925 22 108.668 24.9058 118.627 30.7174C128.586 36.5291 136.471 44.4143 142.283 54.373C148.094 64.3318 151 75.2075 151 87Z" fill="#747474"/>
<path d="M86.5 49.3125C79.7552 49.3125 73.5345 50.9759 67.8379 54.3027C62.1413 57.6296 57.6296 62.1413 54.3027 67.8379C50.9759 73.5345 49.3125 79.7552 49.3125 86.5C49.3125 93.2448 50.9759 99.4655 54.3027 105.162C57.6296 110.859 62.1413 115.37 67.8379 118.697C73.5345 122.024 79.7552 123.688 86.5 123.688C93.2448 123.688 99.4655 122.024 105.162 118.697C110.859 115.37 115.37 110.859 118.697 105.162C122.024 99.4655 123.688 93.2448 123.688 86.5C123.688 79.7552 122.024 73.5345 118.697 67.8379C115.37 62.1413 110.859 57.6296 105.162 54.3027C99.4655 50.9759 93.2448 49.3125 86.5 49.3125ZM139 86.5C139 96.0247 136.653 104.809 131.959 112.853C127.265 120.896 120.896 127.265 112.853 131.959C104.809 136.653 96.0247 139 86.5 139C76.9753 139 68.1911 136.653 60.1475 131.959C52.1038 127.265 45.735 120.896 41.041 112.853C36.347 104.809 34 96.0247 34 86.5C34 76.9753 36.347 68.1911 41.041 60.1475C45.735 52.1038 52.1038 45.735 60.1475 41.041C68.1911 36.347 76.9753 34 86.5 34C96.0247 34 104.809 36.347 112.853 41.041C120.896 45.735 127.265 52.1038 131.959 60.1475C136.653 68.1911 139 76.9753 139 86.5Z" fill="#747474"/>
<path d="M86.5 55.6875C80.9115 55.6875 75.7572 57.0658 71.0371 59.8223C66.3171 62.5788 62.5788 66.3171 59.8223 71.0371C57.0658 75.7572 55.6875 80.9115 55.6875 86.5C55.6875 92.0885 57.0658 97.2428 59.8223 101.963C62.5788 106.683 66.3171 110.421 71.0371 113.178C75.7572 115.934 80.9115 117.313 86.5 117.313C92.0885 117.313 97.2428 115.934 101.963 113.178C106.683 110.421 110.421 106.683 113.178 101.963C115.934 97.2428 117.313 92.0885 117.313 86.5C117.313 80.9115 115.934 75.7572 113.178 71.0371C110.421 66.3171 106.683 62.5788 101.963 59.8223C97.2428 57.0658 92.0885 55.6875 86.5 55.6875ZM130 86.5C130 94.3919 128.055 101.67 124.166 108.335C120.277 115 115 120.277 108.335 124.166C101.67 128.055 94.3919 130 86.5 130C78.6081 130 71.3298 128.055 64.665 124.166C58.0003 120.277 52.7233 115 48.834 108.335C44.9447 101.67 43 94.3919 43 86.5C43 78.6081 44.9447 71.3298 48.834 64.665C52.7233 58.0003 58.0003 52.7233 64.665 48.834C71.3298 44.9447 78.6081 43 86.5 43C94.3919 43 101.67 44.9447 108.335 48.834C115 52.7233 120.277 58.0003 124.166 64.665C128.055 71.3298 130 78.6081 130 86.5Z" fill="#747474"/>
</svg>
