<svg width="173" height="173" viewBox="0 0 173 173" fill="none" xmlns="http://www.w3.org/2000/svg">
<path d="M86.5 25.2292C75.3872 25.2292 65.1378 27.9698 55.752 33.4512C46.3661 38.9325 38.9325 46.3661 33.4512 55.752C27.9698 65.1378 25.2292 75.3872 25.2292 86.5C25.2292 97.6128 27.9698 107.862 33.4512 117.248C38.9325 126.634 46.3661 134.067 55.752 139.549C65.1378 145.03 75.3872 147.771 86.5 147.771C97.6128 147.771 107.862 145.03 117.248 139.549C126.634 134.067 134.067 126.634 139.549 117.248C145.03 107.862 147.771 97.6128 147.771 86.5C147.771 75.3872 145.03 65.1378 139.549 55.752C134.067 46.3661 126.634 38.9325 117.248 33.4512C107.862 27.9698 97.6128 25.2292 86.5 25.2292ZM173 86.5C173 102.193 169.133 116.666 161.399 129.919C153.665 143.172 143.172 153.665 129.919 161.399C116.666 169.133 102.193 173 86.5 173C70.8069 173 56.3339 169.133 43.0811 161.399C29.8282 153.665 19.3349 143.172 11.6009 129.919C3.86697 116.666 0 102.193 0 86.5C0 70.8069 3.86697 56.3339 11.6009 43.0811C19.3349 29.8282 29.8282 19.3349 43.0811 11.6009C56.3339 3.86697 70.8069 0 86.5 0C102.193 0 116.666 3.86697 129.919 11.6009C143.172 19.3349 153.665 29.8282 161.399 43.0811C169.133 56.3339 173 70.8069 173 86.5Z" fill="white"/>
<path d="M86.5 42.9375C78.599 42.9375 71.3118 44.8861 64.6387 48.7832C57.9655 52.6803 52.6803 57.9655 48.7832 64.6387C44.8861 71.3118 42.9375 78.599 42.9375 86.5C42.9375 94.401 44.8861 101.688 48.7832 108.361C52.6803 115.035 57.9655 120.32 64.6387 124.217C71.3118 128.114 78.599 130.062 86.5 130.062C94.401 130.062 101.688 128.114 108.361 124.217C115.035 120.32 120.32 115.035 124.217 108.361C128.114 101.688 130.062 94.401 130.062 86.5C130.062 78.599 128.114 71.3118 124.217 64.6387C120.32 57.9655 115.035 52.6803 108.361 48.7832C101.688 44.8861 94.401 42.9375 86.5 42.9375ZM148 86.5C148 97.6576 145.251 107.948 139.752 117.37C134.253 126.793 126.793 134.253 117.37 139.752C107.948 145.251 97.6576 148 86.5 148C75.3424 148 65.0524 145.251 55.6299 139.752C46.2074 134.253 38.7467 126.793 33.248 117.37C27.7493 107.948 25 97.6576 25 86.5C25 75.3424 27.7493 65.0524 33.248 55.6299C38.7467 46.2074 46.2074 38.7467 55.6299 33.248C65.0524 27.7493 75.3424 25 86.5 25C97.6576 25 107.948 27.7493 117.37 33.248C126.793 38.7467 134.253 46.2074 139.752 55.6299C145.251 65.0524 148 75.3424 148 86.5Z" fill="white"/>
<path d="M86.5 54.2708C80.6545 54.2708 75.2632 55.7125 70.3262 58.5957C65.3891 61.479 61.479 65.3891 58.5957 70.3262C55.7125 75.2632 54.2708 80.6545 54.2708 86.5C54.2708 92.3455 55.7125 97.7368 58.5957 102.674C61.479 107.611 65.3891 111.521 70.3262 114.404C75.2632 117.288 80.6545 118.729 86.5 118.729C92.3455 118.729 97.7368 117.288 102.674 114.404C107.611 111.521 111.521 107.611 114.404 102.674C117.288 97.7368 118.729 92.3455 118.729 86.5C118.729 80.6545 117.288 75.2632 114.404 70.3262C111.521 65.3891 107.611 61.479 102.674 58.5957C97.7368 55.7125 92.3455 54.2708 86.5 54.2708ZM132 86.5C132 94.7548 129.966 102.368 125.898 109.339C121.83 116.31 116.31 121.83 109.339 125.898C102.368 129.966 94.7548 132 86.5 132C78.2452 132 70.6323 129.966 63.6611 125.898C56.69 121.83 51.1704 116.31 47.1022 109.339C43.0341 102.368 41 94.7548 41 86.5C41 78.2452 43.0341 70.6323 47.1022 63.6611C51.1704 56.69 56.69 51.1704 63.6611 47.1022C70.6323 43.0341 78.2452 41 86.5 41C94.7548 41 102.368 43.0341 109.339 47.1022C116.31 51.1704 121.83 56.69 125.898 63.6611C129.966 70.6323 132 78.2452 132 86.5Z" fill="white"/>
</svg>
